<svg id="Layer_1" data-name="Layer 1" xmlns="http://www.w3.org/2000/svg" viewBox="0 0 80.79 63.9"><defs><style>.cls-1{fill:#fff;stroke:#fff;stroke-miterlimit:10;stroke-width:.25px}</style></defs><path class="cls-1" d="M38.15 30.8a2.58 2.58 0 0 1 1.1 1.9 3.15 3.15 0 0 1-.5 2.5c-.4.3-1.1 0-1.5-.7a4.14 4.14 0 0 1-.4-2.1c0-.7 0-.9.2-1.2a2.19 2.19 0 0 1 .3-.5 2.2 2.2 0 0 1 .8.1zM70.57 42.5c-.2.3-.2.5 0 .7s.3.2 1.1-.2a6 6 0 0 1 .7-.3 7.68 7.68 0 0 1-.6.7 2.8 2.8 0 0 0-.5.8c0 .2.2.4.7.8a6.53 6.53 0 0 1 2.6 3.6 2.1 2.1 0 0 0 .7 1.1 4.43 4.43 0 0 0 .9.7 3 3 0 0 0 3.5-.9l.2-.3-.1.3a12.84 12.84 0 0 1-.7 2.1 16.48 16.48 0 0 1-2.7 3.5 11.73 11.73 0 0 1-4.2 2.6 9.12 9.12 0 0 1-3.7.5 5.33 5.33 0 0 1-3.2-.6 7.32 7.32 0 0 1-2.6-2.3 8.16 8.16 0 0 1-1-4 14.21 14.21 0 0 1 .3-2.4c0-.1-.2-.4-.7-1l-.8-.9h2.4l.6-.6a6.93 6.93 0 0 1 3.1-2 2.74 2.74 0 0 0 1.3-.9l.8-.7v1l.8-.6c.4-.3.8-.6.8-.7.4-.4.4-.3.3 0zM66 30.6l.2.1v3.5c0 3.4 0 3.5-.1 3.7l-.2.2h-2.8v1.2l-.5-.6-.5-.6h-4.9l-.1-.2c-.1-.2-.1-.5-.1-3.7v-3.4l.2-.2.2-.2h4.2c4.07 0 4.27 0 4.4.2z"/><path d="M25.17 17.7c-.1 0-.3.2-.4.3-.2.3-.2.6.1 1.4a9.44 9.44 0 0 0 .3.9c.1.3.1.3-.1.2a11.26 11.26 0 0 1-1.6-1.1c-.8-.5-1.6-1.1-1.8-1.2a1 1 0 0 0-1.1.1 1.31 1.31 0 0 0-.2 1.1c0 .1.6 1.1 1.2 2.2a17.73 17.73 0 0 1 1.1 2c0 .1-.4.3-.9.5a17.92 17.92 0 0 0-8 8.3c-.4.7-.8 1.5-.9 1.7a5.5 5.5 0 0 1-2 1.5 5.46 5.46 0 0 1-2.8.6 6.3 6.3 0 0 1-3-.7 6.08 6.08 0 0 1-3.2-3.9 6.39 6.39 0 0 0-.4-1c-.39-.5-1.1.3-1.39 1.6a2.94 2.94 0 0 0 0 1.4 23.24 23.24 0 0 0 2.5 8.4c3.7 7.3 9.1 12.7 15.3 15.4 1.2.5 3 1.1 4 1.4l.6.1v.7c0 .4-.1 1.4-.1 2.2a14.75 14.75 0 0 0-.1 1.6 9.58 9.58 0 0 0 1.7 0 .22.22 0 0 0 .2-.2c0-.1.1-2.3.2-3.1l.1-.7h.3c.2 0 .79.1 1.4.2l1.1.1v.5c0 .2-.1 1-.21 1.7 0 1-.1 1.7-.1 1.8v.2h1c.5 0 1 0 1-.1s.1-.6.2-1.3.2-1.5.2-1.8v-.5h.5a13.13 13.13 0 0 0 3.1-.3 17.63 17.63 0 0 0 7.1-3.3 13.44 13.44 0 0 0 5-6.6 21.54 21.54 0 0 0 1.5-11.7c0-.3 0-.3 1.3-1.5 2.1-1.9 3-2.8 3.1-3.1a.74.74 0 0 0-.4-1.1 42.74 42.74 0 0 0-4.5-.7l-1.9-.2-.3-.5a27.19 27.19 0 0 0-2.6-3.3 18.21 18.21 0 0 0-5.6-3.9l-.9-.4-1.3-1.5c-2.9-3.4-3.2-3.6-3.7-3.1-.2.2-.3.6-.4 1.4l-.1.4-1.5-1.5A9.7 9.7 0 0 0 26 17.7a1.1 1.1 0 0 0-.83 0zm12.9 13.1a2.58 2.58 0 0 1 1.1 1.9 3.15 3.15 0 0 1-.5 2.5c-.4.3-1.1 0-1.5-.7a4.14 4.14 0 0 1-.4-2.1c0-.7 0-.9.2-1.2a2.19 2.19 0 0 1 .3-.5 2.2 2.2 0 0 1 .8.1zm18.71-1c-.1.1-.41.3-.5.5l-.2.3v3.6a23.9 23.9 0 0 0 .1 3.8 1.42 1.42 0 0 0 .8.9 9.28 9.28 0 0 0 2.5.1h2.2l1.1 1.3 1.09 1.3V39H65c1 0 1.1 0 1.4-.2a1.15 1.15 0 0 0 .5-.5c.2-.3.2-.4.2-4 0-3.4 0-3.6-.1-3.9a1.56 1.56 0 0 0-.69-.7 35.88 35.88 0 0 0-4.7-.1c-4.33 0-4.54 0-4.83.2zm9.19.8l.2.1v3.5c0 3.4 0 3.5-.1 3.7l-.2.2h-2.8v1.2l-.5-.6-.5-.6h-4.9l-.1-.2c-.1-.2-.1-.5-.1-3.7v-3.4l.2-.2.2-.2h4.2c4.1 0 4.3 0 4.43.2zm-4.19 1.1c-1 .1-1.71.2-1.81.2a16.18 16.18 0 0 0-.1 1.8v1.7h-.4c-.69 0-1.1.3-1.1.8 0 .8 1.31 1.1 1.91.5.19-.2.19-.2.19-1.9v-1.7l1.31-.2c.69-.1 1.3-.2 1.5-.2h.19v2.2h-.4c-1 0-1.4.7-.8 1.3a1.22 1.22 0 0 0 1.6 0l.2-.2v-4.6h-.3a12.3 12.3 0 0 1-1.99.3zm8.89 9.5a1.72 1.72 0 0 0-.7.4l-.3.2-.2-.2c-.4-.4-.69-.3-2 .9-.6.6-.8.7-1.19.8a7.77 7.77 0 0 0-3.2 2l-.51.6h-1.2c-1 0-1.19 0-1.4.1s-.5.4-.4.8.2.5 1 1.4l.5.6-.1.8a9 9 0 0 0 .31 4.6 5.65 5.65 0 0 0 1.3 2.3 7 7 0 0 0 4.9 2.4c.6 0 .7 0 .6.1a6.52 6.52 0 0 0-.2 1.8 1.13 1.13 0 0 0 .8.1l.2-1 .2-1h1.2s-.2 1.1-.31 1.8c0 .2 0 .2.4.2a1.11 1.11 0 0 1 .41.1 8 8 0 0 1 .3-1.1l.2-1.2.59-.2a12.84 12.84 0 0 0 7.2-5.4 9.46 9.46 0 0 0 1.7-4.1c.1-.8-.3-1.4-.7-1.4s-.5.1-.8.7a1.91 1.91 0 0 1-1.9 1.3 2.12 2.12 0 0 1-1.4-.4 1.9 1.9 0 0 1-.7-1.1 7.82 7.82 0 0 0-2.5-3.6l-.4-.3.5-.6c.5-.7.6-.9.5-1.3s-.6-.7-1.2-.5-.5.2-.5 0a.65.65 0 0 0-.6-.5c-.07-.1-.2-.1-.4-.1zm-.1 1.3c-.2.3-.2.5 0 .7s.3.2 1.1-.2a6 6 0 0 1 .7-.3 7.68 7.68 0 0 1-.6.7 2.8 2.8 0 0 0-.5.8c0 .2.2.4.7.8a6.53 6.53 0 0 1 2.6 3.6 2.1 2.1 0 0 0 .7 1.1 4.43 4.43 0 0 0 .9.7 3 3 0 0 0 3.5-.9l.2-.3-.1.3a12.84 12.84 0 0 1-.7 2.1 16.48 16.48 0 0 1-2.7 3.5 11.73 11.73 0 0 1-4.2 2.6 9.12 9.12 0 0 1-3.7.5 5.29 5.29 0 0 1-3.19-.6 7.32 7.32 0 0 1-2.6-2.3 8.16 8.16 0 0 1-1-4 13.25 13.25 0 0 1 .3-2.4c0-.1-.2-.4-.7-1l-.8-.9h2.39l.6-.6a6.93 6.93 0 0 1 3.1-2 2.74 2.74 0 0 0 1.3-.9l.81-.7v1l.8-.6c.4-.3.8-.6.8-.7.39-.4.39-.3.29 0zm-5.7 3.6a1.6 1.6 0 0 0-.59 1.3 1.41 1.41 0 0 0 .09.7c.31.5.81.5 1.31.1a1.62 1.62 0 0 0 .5-1.4c0-.6 0-.7-.2-.8a.72.72 0 0 0-1.11.1zm.7.5c.2.2 0 1-.3 1.2s-.7-.2-.4-.8c.13-.4.41-.6.7-.4zM39 .09a2.68 2.68 0 0 0-1.68 1.42L37 2v16.08l.24.5a3.25 3.25 0 0 0 1.24 1.3c.38.18.5.18 2.8.25l2.42.06.06 2.6.06 2.61 2.29-2.61 2.3-2.6h10.27l.49-.25a3.08 3.08 0 0 0 1.31-1.36l.18-.44v-16l-.25-.5A3.17 3.17 0 0 0 59 .21L58.55 0h-9.61c-7.39 0-9.68 0-9.94.09z"/><path d="M58.49 1.2a2.24 2.24 0 0 1 .87.81c.12.25.12.93.19 7.82 0 5.52 0 7.69-.07 7.94a2 2 0 0 1-.8 1.05c-.25.13-.75.13-5.59.19h-5.27l-1.49 1.67L45 22.3l-.07-.87c0-.5-.06-1.18-.06-1.61v-.75h-2.76c-2.54 0-2.79-.06-3.1-.18a2 2 0 0 1-.87-1.18c-.06-.31-.06-2.86-.06-7.7 0-7.87 0-7.75.5-8.31a4.39 4.39 0 0 1 .55-.43c.31-.13.81-.13 9.74-.13 7.7 0 9.43 0 9.62.06z" fill="#fff"/><path d="M53.28 3.62c-.12 0-1.86.19-3.78.44s-3.73.43-3.91.43l-.38.06v7.82h-.86a2.36 2.36 0 0 0-1.43.25c-1.92.93-1.24 3.16 1 3.35a2.44 2.44 0 0 0 2.36-1.05l.25-.38V7.1l3-.37c1.67-.19 3.16-.38 3.29-.38l.24-.06v5.15l-.37-.06c-1.55-.25-2.85.56-2.85 1.8A1.69 1.69 0 0 0 51 14.73a2.05 2.05 0 0 0 1.24.25c.69 0 .87 0 1.18-.19a2.12 2.12 0 0 0 1-.93c.12-.31.12-.56.12-5.27v-5H54a2.94 2.94 0 0 0-.72.03z"/></svg>