<svg data-name="Layer 1" xmlns="http://www.w3.org/2000/svg" viewBox="0 0 44.39 40.52"><path d="M21.84.12c-.4.3-.4.7 0 1.7l.2.8a16.18 16.18 0 0 1-1.5-1c-1.7-1.1-1.9-1.2-2.3-1-.7.5-.6.8.9 3.3a8.08 8.08 0 0 1 .7 1.4c0 .1-.5.4-1 .7a16.34 16.34 0 0 0-6.9 7.3A5 5 0 0 1 9.54 16a5.69 5.69 0 0 1-6.1-.6 5 5 0 0 1-1.8-2.7 6.14 6.14 0 0 0-.5-1.1c-.3-.2-.6.1-.9.8a3.28 3.28 0 0 0-.2 1.9c.2 3.9 2.1 8.4 5.3 12.6a24.78 24.78 0 0 0 13 9.4l1.3.4v.6a7.08 7.08 0 0 1-.1 1.4l-.1.8.8.2.8.2v-.6a7.18 7.18 0 0 1 .3-2.1c0-.1.6 0 1.2 0l1.1.1-.1.9a6.05 6.05 0 0 1-.2 1.5l-.1.6.8.1a5.1 5.1 0 0 0 .9.1 17 17 0 0 0 .4-2.8v-.4l1.3-.1a14.91 14.91 0 0 0 7.4-2.7 13.31 13.31 0 0 0 5.7-8.1 18.57 18.57 0 0 0 .8-7.6l-.1-1.2 1.9-1.7c1.9-1.7 2.2-2.2 2-2.7-.2-.3-.9-.5-3.3-.8-1.3-.1-2.4-.3-2.5-.3a4.25 4.25 0 0 1-1-1.3A16.17 16.17 0 0 0 31 5.42c-.6-.3-1.1-.5-1.1-.6-.3-.4-3.2-3.7-3.5-3.9-.5-.3-.8-.1-1 .8l-.2.8-1.3-1.3c-1.3-1.2-1.7-1.4-2.1-1.1zm11.6 11.6a3.25 3.25 0 0 1 .7 3.3c-.5 1.3-1.8.4-2-1.4s.4-2.5 1.3-1.9z"/></svg>